<svg viewbox="0 0 500 500" width="500" height="500" xmlns="http://www.w3.org/2000/svg"><g fill="none" fill-rule="evenodd"><rect fill="#0F172A" width="500" height="500" rx="36.477"/><g fill="#2DD4BF"><path d="M246.362 184.895h55.926v107.527c-14.36 10.854-30.986 19.183-49.88 24.989-18.894 5.805-37.914 8.708-57.06 8.708-27.458 0-52.146-5.869-74.063-17.606-21.917-11.737-39.11-28.017-51.58-48.841C57.235 238.848 51 215.31 51 189.06c0-26.251 6.235-49.789 18.705-70.613 12.47-20.824 29.79-37.104 51.958-48.841C143.832 57.869 168.77 52 196.483 52c23.176 0 44.21 3.912 63.105 11.737 18.893 7.825 34.764 19.183 47.612 34.076l-39.3 36.347c-18.893-19.94-41.691-29.91-68.395-29.91-16.878 0-31.867 3.533-44.967 10.6-13.1 7.068-23.302 17.038-30.608 29.911-7.306 12.873-10.958 27.64-10.958 44.299 0 16.406 3.652 31.046 10.958 43.92 7.306 12.872 17.445 22.906 30.42 30.1 12.973 7.193 27.773 10.79 44.4 10.79 17.634 0 33.505-3.786 47.612-11.359v-77.616z" fill-rule="nonzero"/><path fill-rule="nonzero" d="M450 184.333V449h-61.351V340.487H306.6V449H245.25V184.333h61.351v104.355h82.048V184.333z"/><path d="M201.15 171.73h105v52.513h-105z"/></g></g></svg>